# Blender v2.82 (sub 7) OBJ File: ''
# www.blender.org
mtllib TestNormal.mtl
o ShapeTest2.001
v -1.500000 -0.499999 -3.500000
v -4.500000 0.500000 -2.500000
v -4.500000 0.500000 -1.500000
v -1.500000 1.500000 -2.500000
v -1.500000 3.500000 -0.500000
v -1.500000 4.500000 0.500001
v -0.500000 3.500000 0.500001
v -4.500000 -0.500000 -0.500000
v -3.500000 -0.500000 -0.500000
v -4.500000 -0.500000 0.500000
v -4.500000 2.500000 -2.500000
v -3.500000 4.500000 -2.499999
v -2.500000 4.500000 -2.499999
v -2.500000 4.500000 -3.499999
v -4.500000 4.500000 -3.499999
v -3.500000 3.500000 -3.500000
v -4.500000 1.500001 -3.500000
v -2.500000 3.500000 -1.499999
v 0.500000 1.500000 0.500000
v -0.500000 1.500000 0.500000
v 0.500000 2.500000 0.500001
v -2.500000 -0.500000 0.500000
v 0.500000 0.500000 0.500000
v 0.500000 -0.500000 0.500000
v 0.500000 0.500000 -0.500000
v -1.500000 2.500000 0.500000
v -1.500000 1.500000 0.500000
v -0.500000 2.500000 -2.500000
v -0.500000 2.500000 -3.500000
v 0.500000 2.500000 -3.500000
v -4.500000 0.500001 -3.500000
v -4.500000 -0.500000 -2.500000
v -1.500000 3.500000 -2.500000
v -1.500000 4.500000 -0.499999
v -2.500000 4.500000 0.500001
v -1.500000 3.500000 0.500001
v -1.500000 3.500000 -3.500000
v -2.500000 3.500000 -3.500000
v -2.500000 1.500000 -1.500000
v -1.500000 2.500000 -1.500000
v -4.500000 2.500000 -3.500000
v -3.500000 3.500000 -0.500000
v -4.500000 3.500000 0.500001
v -2.500000 2.500000 -3.500000
v -2.500000 2.500001 -5.500000
v -2.500000 1.500001 -6.500000
v -2.500000 2.500001 -6.500000
v -3.500000 2.500001 -5.500000
v -2.500000 1.500001 -5.500000
v 0.500000 -0.500000 -0.500000
v 0.500000 1.500000 -0.500000
v -0.500000 3.500000 -0.500000
v -0.500000 2.500000 -0.500000
v 0.500000 2.500000 -0.500000
v 0.500000 3.500000 0.500001
v 0.500000 3.500000 -0.500000
v 0.500000 4.500000 -0.499999
v 0.500000 4.500000 0.500001
v -0.500000 4.500000 -0.499999
v -4.500000 4.500000 -0.499999
v -4.500000 3.500000 -0.500000
v -3.500000 4.500000 0.500001
v -3.500000 4.500000 -0.499999
v -3.500000 2.500000 -0.500000
v -3.500000 1.500000 0.500000
v -4.500000 2.500000 -0.500000
v -4.500000 2.500000 0.500001
v -3.500000 2.500000 0.500001
v -3.500000 1.500000 -0.500000
v -0.500000 -0.500000 -0.500000
v -0.500000 -0.500000 0.500000
v -1.500000 -0.500000 -0.500000
v -1.500000 0.500000 0.500000
v -4.500000 0.500000 -0.500000
v -4.500000 0.500000 0.500000
v -4.500000 1.500000 0.500000
v -4.500000 1.500000 -0.500000
v -4.500000 4.500000 0.500001
v -0.500000 1.500000 -1.500000
v 0.500000 2.500000 -1.500000
v -0.500000 1.500001 -3.500000
v -0.500000 1.500000 -2.500000
v 0.500000 2.500000 -2.500000
v 0.500000 1.500000 -2.500000
v 0.500000 1.500001 -3.500000
v -3.500000 1.500001 -3.500000
v -1.500000 3.500000 -1.499999
v -1.500000 4.500000 -1.499999
v -1.500000 4.500000 -2.499999
v -1.500000 4.500000 -3.499999
v -1.500000 -0.500000 -1.500000
v -1.500000 0.500000 -2.500000
v -1.500000 -0.500000 -2.500000
v -1.500000 2.500000 -2.500000
v -1.500000 0.500001 -3.500000
v -2.500000 2.500000 -0.500000
v -2.500000 0.500000 -0.500000
v -2.500000 2.500000 0.500001
v -4.500000 3.500000 -1.499999
v -4.500000 4.500000 -1.499999
v -4.500000 3.500000 -3.500000
v -4.500000 -0.499999 -3.500000
v -2.500000 2.500000 -1.500000
v -1.500000 0.500000 -1.500000
v -2.500000 4.500000 -0.499999
v -2.500000 4.500000 -1.499999
v -3.500000 4.500000 -1.499999
v -3.500000 4.500001 -4.499999
v -3.500000 4.500000 -3.499999
v -2.500000 4.500001 -4.499999
v -2.500000 3.500001 -4.500000
v -3.500000 3.500001 -4.500000
v -2.500000 -0.500000 -1.500000
v -3.500000 -0.500000 -1.500000
v -2.500000 -0.500000 -2.500000
v -2.500000 -0.500000 -3.500000
v -2.500000 0.500001 -3.500000
v -3.500000 1.500001 -4.500000
v -2.500000 1.500001 -3.500000
v -2.500000 2.500001 -4.500000
v -2.500000 1.500001 -4.500000
v -3.500000 1.500001 -6.500000
v -2.500000 1.500000 0.500000
v -4.500000 -0.500000 -1.500000
v 0.500000 1.500000 -1.500000
v -0.500000 2.500000 -1.500000
v -0.500000 1.500000 -0.500000
v -0.500000 0.500000 -0.500000
v -0.500000 0.500000 0.500000
v -4.500000 4.500000 -2.499999
v -3.500000 -0.500000 -3.500000
v -2.500000 1.500000 -0.500000
v -2.500000 0.500000 -1.500000
v -3.500000 2.500001 -6.500000
v -3.500000 1.500001 -5.500000
v -3.500000 2.500000 -3.500000
v -3.500000 2.500001 -4.500000
v -1.500000 1.500001 -3.500000
v -3.500000 0.500001 -3.500000
v -0.500000 4.500000 0.500001
v -1.500000 -0.500000 0.500000
v -0.500000 2.500000 0.500000
v -3.500000 -0.500000 -2.500000
v -1.500000 1.500000 -1.500000
v -2.500000 -0.500000 -0.500000
v -3.500000 -0.500000 0.500000
v -2.500000 0.500000 0.500000
v -2.500000 3.500000 0.500001
v -2.500000 3.500000 -0.499999
v -4.500000 3.500000 -2.500000
v -1.500000 0.500000 -0.500000
v -1.500000 1.500000 -0.500000
v -3.500000 3.500000 0.500001
v -4.500000 2.500000 -1.500000
v -4.500000 1.500000 -1.500000
v -4.500000 1.500000 -2.500000
v -3.500000 0.500000 0.500000
v -1.500000 2.500000 -0.500000
v -1.500000 2.500000 -3.500000
vt 0.000000 1.000000
vt 0.000000 0.000000
vt 1.000000 0.000000
vt 1.000000 1.000000
vt 0.000000 1.000000
vt 0.000000 0.000000
vt 1.000000 0.000000
vt 0.000000 1.000000
vt 0.000000 0.000000
vt 1.000000 0.000000
vt 1.000000 1.000000
vt 0.000000 1.000000
vt 0.000000 0.000000
vt 1.000000 0.000000
vt 1.000000 1.000000
vt 0.000000 1.000000
vt 1.000000 0.000000
vt 1.000000 1.000000
vt 0.000000 1.000000
vt 0.000000 0.000000
vt 1.000000 0.000000
vt 1.000000 1.000000
vt 0.000000 1.000000
vt 0.000000 0.000000
vt 1.000000 0.000000
vt 1.000000 1.000000
vt 0.000000 1.000000
vt 0.000000 0.000000
vt 1.000000 0.000000
vt 1.000000 1.000000
vt 0.000000 1.000000
vt 0.000000 0.000000
vt 1.000000 0.000000
vt 1.000000 1.000000
vt 0.000000 1.000000
vt 0.000000 0.000000
vt 1.000000 0.000000
vt 1.000000 1.000000
vt 0.000000 1.000000
vt 0.000000 0.000000
vt 1.000000 0.000000
vt 1.000000 1.000000
vt 0.000000 1.000000
vt 0.000000 0.000000
vt 1.000000 0.000000
vt 1.000000 1.000000
vt 0.000000 1.000000
vt 0.000000 0.000000
vt 1.000000 0.000000
vt 1.000000 1.000000
vt 0.000000 1.000000
vt 0.000000 0.000000
vt 1.000000 0.000000
vt 1.000000 1.000000
vt 0.000000 1.000000
vt 0.000000 0.000000
vt 1.000000 1.000000
vt 0.000000 1.000000
vt 0.000000 0.000000
vt 1.000000 0.000000
vt 1.000000 1.000000
vt 0.000000 1.000000
vt 0.000000 0.000000
vt 1.000000 0.000000
vt 1.000000 1.000000
vt 0.000000 0.000000
vt 1.000000 0.000000
vt 1.000000 1.000000
vt 0.000000 1.000000
vt 0.000000 0.000000
vt 1.000000 0.000000
vt 1.000000 1.000000
vt 0.000000 1.000000
vt 0.000000 0.000000
vt 1.000000 0.000000
vt 1.000000 1.000000
vt 0.000000 1.000000
vt 0.000000 0.000000
vt 1.000000 0.000000
vt 1.000000 1.000000
vt 0.000000 1.000000
vt 0.000000 0.000000
vt 1.000000 0.000000
vt 1.000000 1.000000
vt 0.000000 1.000000
vt 0.000000 0.000000
vt 1.000000 0.000000
vt 1.000000 1.000000
vt 0.000000 1.000000
vt 0.000000 0.000000
vt 1.000000 0.000000
vt 1.000000 1.000000
vt 0.000000 1.000000
vt 0.000000 0.000000
vt 1.000000 0.000000
vt 1.000000 1.000000
vt 0.000000 1.000000
vt 0.000000 0.000000
vt 1.000000 0.000000
vt 1.000000 1.000000
vt 0.000000 1.000000
vt 0.000000 0.000000
vt 1.000000 0.000000
vt 1.000000 1.000000
vt 0.000000 1.000000
vt 0.000000 0.000000
vt 1.000000 0.000000
vt 0.000000 1.000000
vt 0.000000 0.000000
vt 1.000000 0.000000
vt 1.000000 1.000000
vt 0.000000 1.000000
vt 0.000000 0.000000
vt 1.000000 0.000000
vt 1.000000 1.000000
vt 0.000000 1.000000
vt 0.000000 0.000000
vt 1.000000 0.000000
vt 1.000000 1.000000
vt 0.000000 1.000000
vt 0.000000 0.000000
vt 1.000000 0.000000
vt 1.000000 1.000000
vt 0.000000 0.000000
vt 1.000000 0.000000
vt 1.000000 1.000000
vt 0.000000 1.000000
vt 1.000000 0.000000
vt 1.000000 1.000000
vt 0.000000 1.000000
vt 0.000000 0.000000
vt 1.000000 0.000000
vt 1.000000 1.000000
vt 0.000000 1.000000
vt 0.000000 0.000000
vt 1.000000 0.000000
vt 1.000000 1.000000
vt 0.000000 1.000000
vt 0.000000 0.000000
vt 1.000000 0.000000
vt 1.000000 1.000000
vt 0.000000 1.000000
vt 0.000000 0.000000
vt 1.000000 0.000000
vt 1.000000 1.000000
vt 0.000000 1.000000
vt 0.000000 0.000000
vt 1.000000 0.000000
vt 1.000000 1.000000
vt 0.000000 1.000000
vt 1.000000 0.000000
vt 1.000000 1.000000
vt 0.000000 1.000000
vt 0.000000 0.000000
vt 1.000000 0.000000
vt 1.000000 1.000000
vt 0.000000 1.000000
vt 0.000000 0.000000
vt 1.000000 0.000000
vt 1.000000 1.000000
vt 0.000000 0.000000
vt 1.000000 0.000000
vt 1.000000 1.000000
vt 0.000000 1.000000
vt 1.000000 0.000000
vt 1.000000 1.000000
vt 0.000000 1.000000
vt 0.000000 0.000000
vt 1.000000 0.000000
vt 1.000000 1.000000
vt 0.000000 1.000000
vt 0.000000 0.000000
vt 1.000000 0.000000
vt 1.000000 1.000000
vt 0.000000 1.000000
vt 0.000000 0.000000
vt 1.000000 0.000000
vt 1.000000 1.000000
vt 0.000000 1.000000
vt 0.000000 0.000000
vt 1.000000 0.000000
vt 1.000000 1.000000
vt 0.000000 0.000000
vt 1.000000 0.000000
vt 0.000000 1.000000
vt 1.000000 1.000000
vt 0.000000 1.000000
vt 0.000000 0.000000
vt 1.000000 0.000000
vt 1.000000 1.000000
vt 0.000000 1.000000
vt 0.000000 0.000000
vt 1.000000 0.000000
vt 1.000000 1.000000
vt 0.000000 1.000000
vt 0.000000 0.000000
vt 1.000000 0.000000
vt 1.000000 1.000000
vt 0.000000 0.000000
vt 1.000000 0.000000
vt 0.000000 1.000000
vt 1.000000 1.000000
vt 0.000000 1.000000
vt 0.000000 0.000000
vt 1.000000 0.000000
vt 1.000000 1.000000
vt 0.000000 1.000000
vt 0.000000 0.000000
vt 1.000000 0.000000
vt 1.000000 1.000000
vt 0.000000 1.000000
vt 0.000000 0.000000
vt 1.000000 0.000000
vt 1.000000 1.000000
vt 0.000000 1.000000
vt 0.000000 0.000000
vt 1.000000 1.000000
vt 0.000000 1.000000
vt 0.000000 0.000000
vt 1.000000 0.000000
vt 1.000000 1.000000
vt 0.000000 1.000000
vt 0.000000 0.000000
vt 1.000000 0.000000
vt 1.000000 1.000000
vt 0.000000 0.000000
vt 1.000000 0.000000
vt 1.000000 1.000000
vt 0.000000 1.000000
vt 0.000000 0.000000
vt 1.000000 0.000000
vt 1.000000 1.000000
vt 0.000000 1.000000
vt 0.000000 0.000000
vt 1.000000 0.000000
vt 0.000000 1.000000
vt 0.000000 0.000000
vt 0.000000 0.000000
vt 1.000000 0.000000
vt 1.000000 1.000000
vt 0.000000 1.000000
vt 0.000000 0.000000
vt 0.000000 1.000000
vt 0.000000 0.000000
vt 1.000000 0.000000
vt 1.000000 1.000000
vt 0.000000 0.000000
vt 1.000000 0.000000
vt 1.000000 1.000000
vt 0.000000 1.000000
vt 0.000000 0.000000
vt 1.000000 0.000000
vt 1.000000 1.000000
vt 0.000000 1.000000
vt 0.000000 0.000000
vt 1.000000 0.000000
vt 1.000000 1.000000
vt 0.000000 1.000000
vt 0.000000 0.000000
vt 1.000000 0.000000
vt 1.000000 1.000000
vt 0.000000 1.000000
vt 0.000000 0.000000
vt 1.000000 0.000000
vt 1.000000 1.000000
vt 0.000000 1.000000
vt 0.000000 0.000000
vt 1.000000 0.000000
vt 1.000000 1.000000
vt 0.000000 1.000000
vt 0.000000 0.000000
vt 1.000000 1.000000
vt 0.000000 1.000000
vt 0.000000 0.000000
vt 1.000000 0.000000
vt 1.000000 1.000000
vt 0.000000 1.000000
vt 0.000000 0.000000
vt 1.000000 0.000000
vt 1.000000 1.000000
vt 0.000000 1.000000
vt 0.000000 0.000000
vt 1.000000 0.000000
vt 1.000000 1.000000
vt 0.000000 1.000000
vt 0.000000 0.000000
vt 1.000000 0.000000
vt 1.000000 1.000000
vt 0.000000 0.000000
vt 1.000000 0.000000
vt 0.000000 1.000000
vt 1.000000 1.000000
vt 0.000000 0.000000
vt 1.000000 0.000000
vt 1.000000 1.000000
vt 0.000000 1.000000
vt 0.000000 0.000000
vt 1.000000 0.000000
vt 1.000000 1.000000
vt 0.000000 1.000000
vt 0.000000 0.000000
vt 1.000000 0.000000
vt 1.000000 1.000000
vt 0.000000 1.000000
vt 0.000000 0.000000
vt 1.000000 0.000000
vt 1.000000 1.000000
vt 1.000000 0.000000
vt 1.000000 1.000000
vt 0.000000 1.000000
vt 0.000000 0.000000
vt 1.000000 0.000000
vt 1.000000 1.000000
vt 0.000000 1.000000
vt 0.000000 0.000000
vt 1.000000 0.000000
vt 1.000000 1.000000
vt 0.000000 1.000000
vt 0.000000 0.000000
vt 1.000000 0.000000
vt 1.000000 1.000000
vt 0.000000 1.000000
vt 0.000000 0.000000
vt 1.000000 0.000000
vt 1.000000 1.000000
vt 0.000000 0.000000
vt 1.000000 0.000000
vt 1.000000 0.000000
vt 1.000000 1.000000
vt 0.000000 1.000000
vt 0.000000 0.000000
vt 1.000000 0.000000
vt 1.000000 1.000000
vt 0.000000 0.000000
vt 1.000000 0.000000
vt 1.000000 0.000000
vt 0.000000 0.000000
vt 1.000000 0.000000
vt 1.000000 1.000000
vt 0.000000 1.000000
vt 1.000000 0.000000
vt 1.000000 1.000000
vt 0.000000 1.000000
vt 0.000000 0.000000
vt 0.000000 1.000000
vt 0.000000 0.000000
vt 1.000000 0.000000
vt 1.000000 1.000000
vt 0.000000 0.000000
vt 1.000000 0.000000
vt 0.000000 1.000000
vt 1.000000 1.000000
vt 1.000000 0.000000
vt 1.000000 1.000000
vt 1.000000 0.000000
vt 0.000000 1.000000
vt 1.000000 1.000000
vt 0.000000 1.000000
vt 1.000000 1.000000
vt 0.000000 1.000000
vt 0.000000 0.000000
vt 1.000000 0.000000
vt 1.000000 1.000000
vt 0.000000 1.000000
vt 1.000000 1.000000
vt 0.000000 1.000000
vt 1.000000 1.000000
vt 0.000000 1.000000
vt 0.000000 0.000000
vt 1.000000 0.000000
vt 1.000000 1.000000
vt 0.000000 1.000000
vt 0.000000 0.000000
vt 1.000000 0.000000
vt 1.000000 1.000000
vt 0.000000 1.000000
vt 0.000000 0.000000
vt 1.000000 0.000000
vt 1.000000 1.000000
vt 0.000000 1.000000
vt 0.000000 0.000000
vt 1.000000 0.000000
vt 1.000000 1.000000
vt 0.000000 1.000000
vt 0.000000 0.000000
vt 1.000000 0.000000
vt 1.000000 1.000000
vt 0.000000 1.000000
vt 0.000000 0.000000
vt 1.000000 0.000000
vt 1.000000 1.000000
vt 0.000000 0.000000
vt 1.000000 0.000000
vt 0.000000 1.000000
vt 1.000000 1.000000
vt 0.000000 1.000000
vt 0.000000 0.000000
vt 1.000000 0.000000
vt 1.000000 1.000000
vt 0.000000 1.000000
vt 0.000000 0.000000
vt 1.000000 0.000000
vt 1.000000 1.000000
vt 0.000000 0.000000
vt 1.000000 0.000000
vt 0.000000 1.000000
vt 1.000000 1.000000
vt 0.000000 1.000000
vt 0.000000 0.000000
vt 0.000000 1.000000
vt 0.000000 0.000000
vt 1.000000 0.000000
vt 1.000000 1.000000
vt 0.000000 1.000000
vt 0.000000 0.000000
vt 1.000000 0.000000
vt 1.000000 1.000000
vt 0.000000 0.000000
vt 1.000000 0.000000
vt 1.000000 1.000000
vt 0.000000 1.000000
vt 1.000000 0.000000
vt 1.000000 1.000000
vt 0.000000 1.000000
vt 0.000000 0.000000
vt 1.000000 0.000000
vt 1.000000 1.000000
vt 0.000000 1.000000
vt 1.000000 0.000000
vt 1.000000 1.000000
vt 0.000000 1.000000
vt 0.000000 0.000000
vt 1.000000 0.000000
vt 1.000000 1.000000
vt 0.000000 1.000000
vt 0.000000 0.000000
vt 1.000000 0.000000
vt 1.000000 1.000000
vt 0.000000 1.000000
vt 0.000000 0.000000
vt 1.000000 0.000000
vt 1.000000 1.000000
vt 0.000000 1.000000
vt 0.000000 0.000000
vt 1.000000 0.000000
vt 1.000000 1.000000
vt 0.000000 1.000000
vt 0.000000 0.000000
vt 0.000000 1.000000
vt 0.000000 0.000000
vt 1.000000 0.000000
vt 1.000000 1.000000
vt 0.000000 1.000000
vt 1.000000 1.000000
vt 0.000000 1.000000
vt 0.000000 0.000000
vt 0.000000 1.000000
vt 0.000000 0.000000
vt 1.000000 0.000000
vt 1.000000 1.000000
vt 0.000000 0.000000
vt 1.000000 0.000000
vt 0.000000 1.000000
vt 0.000000 0.000000
vt 1.000000 0.000000
vt 1.000000 1.000000
vt 0.000000 1.000000
vt 0.000000 0.000000
vt 1.000000 0.000000
vt 1.000000 1.000000
vt 0.000000 1.000000
vt 0.000000 0.000000
vt 0.000000 0.000000
vt 1.000000 0.000000
vt 0.000000 1.000000
vt 0.000000 0.000000
vt 1.000000 0.000000
vt 1.000000 1.000000
vt 0.000000 1.000000
vt 0.000000 0.000000
vt 1.000000 0.000000
vt 0.000000 1.000000
vt 0.000000 0.000000
vt 0.000000 1.000000
vt 0.000000 0.000000
vt 1.000000 0.000000
vt 1.000000 1.000000
vt 0.000000 1.000000
vt 0.000000 0.000000
vt 1.000000 0.000000
vt 1.000000 1.000000
vt 0.000000 1.000000
vt 0.000000 0.000000
vt 1.000000 1.000000
vt 0.000000 1.000000
vt 0.000000 0.000000
vt 1.000000 0.000000
vt 1.000000 1.000000
vt 0.000000 1.000000
vt 0.000000 0.000000
vt 1.000000 1.000000
vt 0.000000 1.000000
vt 1.000000 0.000000
vt 1.000000 1.000000
vt 0.000000 1.000000
vt 0.000000 0.000000
vt 1.000000 0.000000
vt 1.000000 1.000000
vt 0.000000 1.000000
vt 0.000000 0.000000
vt 1.000000 0.000000
vt 1.000000 1.000000
vt 0.000000 1.000000
vt 0.000000 0.000000
vt 1.000000 0.000000
vt 1.000000 1.000000
vt 0.000000 1.000000
vt 0.000000 0.000000
vt 1.000000 0.000000
vt 1.000000 1.000000
vt 0.000000 0.000000
vt 1.000000 0.000000
vt 0.000000 1.000000
vt 1.000000 1.000000
vt 0.000000 1.000000
vt 0.000000 0.000000
vt 1.000000 0.000000
vt 1.000000 1.000000
vt 0.000000 1.000000
vt 1.000000 0.000000
vt 0.000000 1.000000
vt 0.000000 0.000000
vt 1.000000 0.000000
vt 1.000000 1.000000
vt 0.000000 1.000000
vt 0.000000 0.000000
vt 1.000000 0.000000
vt 1.000000 1.000000
vt 0.000000 0.000000
vt 1.000000 1.000000
vt 0.000000 1.000000
vt 0.000000 0.000000
vt 1.000000 0.000000
vt 1.000000 1.000000
vt 0.000000 1.000000
vt 0.000000 0.000000
vt 1.000000 0.000000
vt 1.000000 1.000000
vt 0.000000 1.000000
vt 0.000000 0.000000
vt 1.000000 0.000000
vt 1.000000 1.000000
vt 0.000000 0.000000
vt 1.000000 0.000000
vt 0.000000 1.000000
vt 1.000000 1.000000
vt 0.000000 1.000000
vt 0.000000 0.000000
vt 1.000000 0.000000
vt 1.000000 1.000000
vn -1.0000 -0.0000 0.0000
vn 0.0000 1.0000 0.0000
vn 0.0000 -0.0000 1.0000
vn 1.0000 0.0000 0.0000
vn 0.0000 -1.0000 -0.0000
vn 0.0000 0.0000 -1.0000
usemtl Default-Material.001
s off
f 60/1/1 61/2/1 43/3/1 78/4/1
f 62/5/2 63/6/2 60/7/2 78/4/2
f 78/8/3 43/9/3 153/10/3 62/11/3
f 92/12/4 93/13/4 1/14/4 95/15/4
f 1/16/5 93/13/5 115/17/5 116/18/5
f 95/19/6 1/20/6 116/21/6 117/22/6
f 156/23/1 2/24/1 3/25/1 155/26/1
f 4/27/4 92/28/4 95/29/4 138/30/4
f 138/31/6 95/32/6 117/33/6 119/34/6
f 140/35/2 59/36/2 34/37/2 6/38/2
f 52/39/5 7/40/5 36/41/5 5/42/5
f 6/43/3 36/44/3 7/45/3 140/46/3
f 59/47/6 52/48/6 5/49/6 34/50/6
f 74/51/1 8/52/1 10/53/1 75/54/1
f 9/55/5 146/56/5 10/53/5 8/57/5
f 75/58/3 10/59/3 146/60/3 157/61/3
f 88/62/4 87/63/4 33/64/4 89/65/4
f 88/62/2 89/66/2 13/67/2 106/68/2
f 101/69/1 41/70/1 11/71/1 150/72/1
f 16/73/6 136/74/6 41/75/6 101/76/6
f 66/77/1 77/78/1 76/79/1 67/80/1
f 67/81/3 76/82/3 65/83/3 68/84/3
f 64/85/6 69/86/6 77/87/6 66/88/6
f 96/89/4 132/90/4 39/91/4 103/92/4
f 106/93/2 13/94/2 12/95/2 107/96/2
f 13/97/2 14/98/2 109/99/2 12/100/2
f 15/101/1 101/102/1 150/103/1 130/104/1
f 12/105/2 109/106/2 15/107/2 130/104/2
f 109/108/6 16/109/6 101/110/6 15/111/6
f 17/112/1 31/113/1 2/114/1 156/115/1
f 86/116/6 139/117/6 31/118/6 17/119/6
f 34/120/4 5/121/4 87/122/4 88/123/4
f 34/120/2 88/124/2 106/125/2 105/126/2
f 87/127/5 5/121/5 149/128/5 18/129/5
f 21/130/4 19/131/4 51/132/4 54/133/4
f 142/134/3 20/135/3 19/136/3 21/137/3
f 72/138/5 141/139/5 22/140/5 145/141/5
f 147/142/3 22/143/3 141/144/3 73/145/3
f 23/146/4 24/147/4 50/148/4 25/149/4
f 50/150/5 24/147/5 71/151/5 70/152/5
f 129/153/3 71/154/3 24/155/3 23/156/3
f 25/157/6 50/158/6 70/159/6 128/160/6
f 142/134/2 53/161/2 158/162/2 26/163/2
f 127/164/5 20/135/5 27/165/5 152/166/5
f 26/167/3 27/168/3 20/169/3 142/170/3
f 53/171/6 127/172/6 152/173/6 158/174/6
f 29/175/1 81/176/1 82/177/1 28/178/1
f 83/179/4 84/180/4 85/181/4 30/182/4
f 83/179/2 30/183/2 29/184/2 28/178/2
f 85/185/5 84/180/5 82/177/5 81/186/5
f 30/187/6 85/188/6 81/189/6 29/190/6
f 48/191/1 135/192/1 118/193/1 137/194/1
f 120/195/4 121/196/4 49/197/4 45/198/4
f 120/195/2 45/199/2 48/200/2 137/194/2
f 49/201/5 121/196/5 118/193/5 135/202/5
f 113/203/5 145/204/5 9/205/5 114/206/5
f 115/207/5 113/208/5 114/209/5 143/210/5
f 31/211/1 102/212/1 32/213/1 2/214/1
f 131/215/5 143/216/5 32/213/5 102/217/5
f 139/218/6 131/219/6 102/220/6 31/221/6
f 155/222/1 3/223/1 74/224/1 77/225/1
f 87/127/4 40/226/4 94/227/4 33/228/4
f 18/229/3 103/230/3 40/231/3 87/232/3
f 68/233/2 64/234/2 66/235/2 67/80/2
f 69/236/5 65/237/5 76/79/5 77/225/5
f 6/43/2 34/238/2 105/239/2 35/240/2
f 35/241/3 148/242/3 36/41/3 6/38/3
f 89/243/4 33/244/4 37/245/4 90/246/4
f 89/243/2 90/247/2 14/248/2 13/249/2
f 90/250/6 37/251/6 38/252/6 14/253/6
f 40/254/4 144/255/4 4/256/4 94/257/4
f 103/258/3 39/259/3 144/260/3 40/261/3
f 41/262/1 17/263/1 156/264/1 11/265/1
f 136/266/6 86/267/6 17/268/6 41/269/6
f 42/270/5 153/271/5 43/3/5 61/272/5
f 63/273/6 42/274/6 61/275/6 60/276/6
f 38/277/6 44/278/6 136/279/6 16/280/6
f 134/281/1 122/282/1 135/283/1 48/284/1
f 45/285/4 49/286/4 46/287/4 47/288/4
f 45/285/2 47/289/2 134/290/2 48/284/2
f 46/291/5 49/286/5 135/283/5 122/292/5
f 127/164/1 128/293/1 129/294/1 20/295/1
f 19/296/4 23/297/4 25/298/4 51/299/4
f 20/300/3 129/301/3 23/302/3 19/303/3
f 51/304/6 25/305/6 128/306/6 127/307/6
f 52/39/1 53/161/1 142/308/1 7/309/1
f 55/310/4 21/311/4 54/312/4 56/313/4
f 7/314/3 142/315/3 21/316/3 55/317/3
f 56/318/6 54/319/6 53/320/6 52/321/6
f 58/322/4 55/323/4 56/324/4 57/325/4
f 58/322/2 57/326/2 59/327/2 140/46/2
f 140/35/3 7/40/3 55/328/3 58/329/3
f 57/330/6 56/331/6 52/332/6 59/333/6
f 35/241/2 105/334/2 63/335/2 62/11/2
f 62/5/3 153/271/3 148/336/3 35/240/3
f 26/167/2 158/337/2 96/338/2 98/339/2
f 152/340/5 27/168/5 123/341/5 132/342/5
f 98/343/3 123/344/3 27/165/3 26/163/3
f 158/345/6 152/346/6 132/347/6 96/348/6
f 98/343/2 96/349/2 64/350/2 68/84/2
f 132/351/5 123/344/5 65/83/5 69/352/5
f 68/233/3 65/237/3 123/341/3 98/339/3
f 96/89/6 132/90/6 69/353/6 64/354/6
f 129/153/2 128/293/2 151/355/2 73/145/2
f 70/356/5 71/154/5 141/144/5 72/357/5
f 73/358/3 141/139/3 71/151/3 129/359/3
f 128/360/6 70/361/6 72/362/6 151/363/6
f 145/364/5 22/143/5 146/60/5 9/365/5
f 157/366/3 146/56/3 22/140/3 147/367/3
f 77/368/1 74/369/1 75/370/1 76/371/1
f 76/372/3 75/373/3 157/374/3 65/375/3
f 61/376/1 66/377/1 67/378/1 43/379/1
f 43/380/3 67/381/3 68/382/3 153/383/3
f 126/384/1 79/385/1 127/386/1 53/387/1
f 54/388/4 51/389/4 125/390/4 80/391/4
f 54/388/2 80/392/2 126/393/2 53/387/2
f 125/394/5 51/389/5 127/386/5 79/395/5
f 28/396/1 82/397/1 79/398/1 126/399/1
f 80/400/4 125/401/4 84/402/4 83/403/4
f 80/400/2 83/404/2 28/405/2 126/399/2
f 84/406/5 125/401/5 79/398/5 82/407/5
f 154/408/1 155/409/1 77/87/1 66/88/1
f 11/410/1 156/411/1 155/412/1 154/413/1
f 151/414/4 72/415/4 91/416/4 104/417/4
f 151/414/2 104/418/2 133/419/2 97/420/2
f 91/421/5 72/415/5 145/422/5 113/423/5
f 104/424/4 91/425/4 93/426/4 92/427/4
f 93/428/5 91/425/5 113/429/5 115/430/5
f 33/431/4 94/432/4 159/433/4 37/434/4
f 37/435/6 159/436/6 44/437/6 38/438/6
f 94/439/4 4/440/4 138/441/4 159/442/4
f 159/443/6 138/444/6 119/445/6 44/446/6
f 36/447/4 26/448/4 158/162/4 5/42/4
f 148/449/3 98/450/3 26/451/3 36/452/3
f 5/453/6 158/337/6 96/338/6 149/454/6
f 27/455/4 73/456/4 151/355/4 152/166/4
f 123/457/3 147/458/3 73/459/3 27/460/3
f 152/340/6 151/461/6 97/462/6 132/342/6
f 153/463/3 68/464/3 98/465/3 148/466/3
f 65/467/3 157/468/3 147/469/3 123/470/3
f 100/471/1 99/472/1 61/275/1 60/276/1
f 63/273/2 107/473/2 100/474/2 60/276/2
f 130/475/1 150/476/1 99/477/1 100/478/1
f 107/479/2 12/480/2 130/481/2 100/478/2
f 99/482/1 154/483/1 66/235/1 61/272/1
f 150/484/1 11/485/1 154/486/1 99/487/1
f 3/488/1 124/489/1 8/490/1 74/491/1
f 114/492/5 9/493/5 8/490/5 124/494/5
f 2/495/1 32/496/1 124/497/1 3/498/1
f 143/499/5 114/500/5 124/497/5 32/501/5
f 144/502/4 104/418/4 92/503/4 4/504/4
f 39/505/3 133/506/3 104/507/3 144/508/3
f 105/509/2 106/510/2 107/511/2 63/512/2
f 108/513/1 112/514/1 16/515/1 109/516/1
f 14/517/4 38/518/4 111/519/4 110/520/4
f 14/517/2 110/521/2 108/522/2 109/516/2
f 111/523/5 38/518/5 16/515/5 112/524/5
f 110/525/6 111/526/6 112/527/6 108/528/6
f 149/529/4 96/349/4 103/530/4 18/129/4
f 116/531/5 115/532/5 143/533/5 131/534/5
f 117/535/6 116/536/6 131/537/6 139/538/6
f 132/351/4 97/539/4 133/419/4 39/540/4
f 119/541/6 117/542/6 139/543/6 86/544/6
f 137/545/1 118/546/1 86/547/1 136/548/1
f 44/549/4 119/550/4 121/551/4 120/552/4
f 44/549/2 120/553/2 137/554/2 136/548/2
f 121/555/5 119/550/5 86/547/5 118/556/5
f 47/557/6 46/558/6 122/559/6 134/560/6
f 23/302/2 25/149/2 128/360/2 129/301/2
f 71/151/1 129/359/1 128/360/1 70/361/1
